{
	"asset":{
		"generator":"Khronos glTF Blender I/O v4.1.63",
		"version":"2.0"
	},
	"scene":0,
	"scenes":[
		{
			"name":"Scene",
			"nodes":[
				0
			]
		}
	],
	"nodes":[
		{
			"mesh":0,
			"name":"\u7403"
		}
	],
	"materials":[
		{
			"doubleSided":true,
			"name":"\u30de\u30c6\u30ea\u30a2\u30eb",
			"pbrMetallicRoughness":{
				"baseColorTexture":{
					"index":0
				},
				"metallicFactor":0,
				"roughnessFactor":0.5
			}
		}
	],
	"meshes":[
		{
			"name":"\u7403.001",
			"primitives":[
				{
					"attributes":{
						"POSITION":0,
						"NORMAL":1,
						"TEXCOORD_0":2
					},
					"indices":3,
					"material":0
				}
			]
		}
	],
	"textures":[
		{
			"sampler":0,
			"source":0
		}
	],
	"images":[
		{
			"mimeType":"image/png",
			"name":"Earth",
			"uri":"Earth.png"
		}
	],
	"accessors":[
		{
			"bufferView":0,
			"componentType":5126,
			"count":5794,
			"max":[
				1.0448123216629028,
				1,
				1.0235815048217773
			],
			"min":[
				-1.0267562866210938,
				-1.0259438753128052,
				-1.0300002098083496
			],
			"type":"VEC3"
		},
		{
			"bufferView":1,
			"componentType":5126,
			"count":5794,
			"type":"VEC3"
		},
		{
			"bufferView":2,
			"componentType":5126,
			"count":5794,
			"type":"VEC2"
		},
		{
			"bufferView":3,
			"componentType":5123,
			"count":12264,
			"type":"SCALAR"
		}
	],
	"bufferViews":[
		{
			"buffer":0,
			"byteLength":69528,
			"byteOffset":0,
			"target":34962
		},
		{
			"buffer":0,
			"byteLength":69528,
			"byteOffset":69528,
			"target":34962
		},
		{
			"buffer":0,
			"byteLength":46352,
			"byteOffset":139056,
			"target":34962
		},
		{
			"buffer":0,
			"byteLength":24528,
			"byteOffset":185408,
			"target":34963
		}
	],
	"samplers":[
		{
			"magFilter":9729,
			"minFilter":9987
		}
	],
	"buffers":[
		{
			"byteLength":209936,
			"uri":"Earth.bin"
		}
	]
}
