{
	"asset":{
		"generator":"Khronos glTF Blender I/O v3.6.27",
		"version":"2.0"
	},
	"scene":0,
	"scenes":[
		{
			"name":"Scene",
			"nodes":[
				0
			]
		}
	],
	"nodes":[
		{
			"mesh":0,
			"name":"\u7acb\u65b9\u4f53"
		}
	],
	"materials":[
		{
			"doubleSided":true,
			"name":"\u30de\u30c6\u30ea\u30a2\u30eb",
			"pbrMetallicRoughness":{
				"baseColorTexture":{
					"index":0
				},
				"metallicFactor":0,
				"roughnessFactor":0.5
			}
		}
	],
	"meshes":[
		{
			"name":"\u7acb\u65b9\u4f53.001",
			"primitives":[
				{
					"attributes":{
						"POSITION":0,
						"NORMAL":1,
						"TEXCOORD_0":2
					},
					"indices":3,
					"material":0
				}
			]
		}
	],
	"textures":[
		{
			"sampler":0,
			"source":0
		}
	],
	"images":[
		{
			"mimeType":"image/png",
			"name":"Meteorite3",
			"uri":"Meteorite3.png"
		}
	],
	"accessors":[
		{
			"bufferView":0,
			"componentType":5126,
			"count":1408,
			"max":[
				1.6560194492340088,
				1.97419273853302,
				1.8936939239501953
			],
			"min":[
				-1.9246455430984497,
				-2.1365737915039062,
				-1.6610164642333984
			],
			"type":"VEC3"
		},
		{
			"bufferView":1,
			"componentType":5126,
			"count":1408,
			"type":"VEC3"
		},
		{
			"bufferView":2,
			"componentType":5126,
			"count":1408,
			"type":"VEC2"
		},
		{
			"bufferView":3,
			"componentType":5123,
			"count":2280,
			"type":"SCALAR"
		}
	],
	"bufferViews":[
		{
			"buffer":0,
			"byteLength":16896,
			"byteOffset":0,
			"target":34962
		},
		{
			"buffer":0,
			"byteLength":16896,
			"byteOffset":16896,
			"target":34962
		},
		{
			"buffer":0,
			"byteLength":11264,
			"byteOffset":33792,
			"target":34962
		},
		{
			"buffer":0,
			"byteLength":4560,
			"byteOffset":45056,
			"target":34963
		}
	],
	"samplers":[
		{
			"magFilter":9729,
			"minFilter":9987
		}
	],
	"buffers":[
		{
			"byteLength":49616,
			"uri":"Meteorite3.bin"
		}
	]
}
