{
	"asset":{
		"generator":"Khronos glTF Blender I/O v4.1.63",
		"version":"2.0"
	},
	"scene":0,
	"scenes":[
		{
			"name":"Scene",
			"nodes":[
				0
			]
		}
	],
	"nodes":[
		{
			"mesh":0,
			"name":"\u7acb\u65b9\u4f53.001",
			"scale":[
				1.7561665773391724,
				1.7561665773391724,
				1.7561665773391724
			]
		}
	],
	"materials":[
		{
			"doubleSided":true,
			"name":"\u30de\u30c6\u30ea\u30a2\u30eb",
			"pbrMetallicRoughness":{
				"baseColorTexture":{
					"index":0
				},
				"metallicFactor":0,
				"roughnessFactor":0.5
			}
		}
	],
	"meshes":[
		{
			"name":"\u7acb\u65b9\u4f53.001",
			"primitives":[
				{
					"attributes":{
						"POSITION":0,
						"NORMAL":1,
						"TEXCOORD_0":2
					},
					"indices":3,
					"material":0
				}
			]
		}
	],
	"textures":[
		{
			"sampler":0,
			"source":0
		}
	],
	"images":[
		{
			"mimeType":"image/png",
			"name":"Fragment",
			"uri":"Fragment.png"
		}
	],
	"accessors":[
		{
			"bufferView":0,
			"componentType":5126,
			"count":405,
			"max":[
				0.632885754108429,
				0.6300579309463501,
				0.6252058744430542
			],
			"min":[
				-0.5139938592910767,
				-0.7666891813278198,
				-0.6196930408477783
			],
			"type":"VEC3"
		},
		{
			"bufferView":1,
			"componentType":5126,
			"count":405,
			"type":"VEC3"
		},
		{
			"bufferView":2,
			"componentType":5126,
			"count":405,
			"type":"VEC2"
		},
		{
			"bufferView":3,
			"componentType":5123,
			"count":2112,
			"type":"SCALAR"
		}
	],
	"bufferViews":[
		{
			"buffer":0,
			"byteLength":4860,
			"byteOffset":0,
			"target":34962
		},
		{
			"buffer":0,
			"byteLength":4860,
			"byteOffset":4860,
			"target":34962
		},
		{
			"buffer":0,
			"byteLength":3240,
			"byteOffset":9720,
			"target":34962
		},
		{
			"buffer":0,
			"byteLength":4224,
			"byteOffset":12960,
			"target":34963
		}
	],
	"samplers":[
		{
			"magFilter":9729,
			"minFilter":9987
		}
	],
	"buffers":[
		{
			"byteLength":17184,
			"uri":"Fragment.bin"
		}
	]
}
