{
	"asset":{
		"generator":"Khronos glTF Blender I/O v4.1.63",
		"version":"2.0"
	},
	"scene":0,
	"scenes":[
		{
			"name":"Scene",
			"nodes":[
				0
			]
		}
	],
	"nodes":[
		{
			"mesh":0,
			"name":"\u7acb\u65b9\u4f53.001",
			"rotation":[
				0,
				0.7071068286895752,
				0,
				0.7071068286895752
			]
		}
	],
	"materials":[
		{
			"doubleSided":true,
			"name":"\u30de\u30c6\u30ea\u30a2\u30eb.001",
			"pbrMetallicRoughness":{
				"baseColorTexture":{
					"index":0
				},
				"metallicFactor":0,
				"roughnessFactor":0.5
			}
		}
	],
	"meshes":[
		{
			"name":"\u7acb\u65b9\u4f53.003",
			"primitives":[
				{
					"attributes":{
						"POSITION":0,
						"NORMAL":1,
						"TEXCOORD_0":2
					},
					"indices":3,
					"material":0
				}
			]
		}
	],
	"textures":[
		{
			"sampler":0,
			"source":0
		}
	],
	"images":[
		{
			"mimeType":"image/png",
			"name":"Boss",
			"uri":"Boss.png"
		}
	],
	"accessors":[
		{
			"bufferView":0,
			"componentType":5126,
			"count":288,
			"max":[
				0.5134254693984985,
				1.3759770393371582,
				1.414318323135376
			],
			"min":[
				-0.5134255886077881,
				-1.3074275255203247,
				-1.3476808071136475
			],
			"type":"VEC3"
		},
		{
			"bufferView":1,
			"componentType":5126,
			"count":288,
			"type":"VEC3"
		},
		{
			"bufferView":2,
			"componentType":5126,
			"count":288,
			"type":"VEC2"
		},
		{
			"bufferView":3,
			"componentType":5123,
			"count":288,
			"type":"SCALAR"
		}
	],
	"bufferViews":[
		{
			"buffer":0,
			"byteLength":3456,
			"byteOffset":0,
			"target":34962
		},
		{
			"buffer":0,
			"byteLength":3456,
			"byteOffset":3456,
			"target":34962
		},
		{
			"buffer":0,
			"byteLength":2304,
			"byteOffset":6912,
			"target":34962
		},
		{
			"buffer":0,
			"byteLength":576,
			"byteOffset":9216,
			"target":34963
		}
	],
	"samplers":[
		{
			"magFilter":9729,
			"minFilter":9987
		}
	],
	"buffers":[
		{
			"byteLength":9792,
			"uri":"Boss.bin"
		}
	]
}
