{
	"asset":{
		"generator":"Khronos glTF Blender I/O v4.1.63",
		"version":"2.0"
	},
	"scene":0,
	"scenes":[
		{
			"name":"Scene",
			"nodes":[
				0
			]
		}
	],
	"nodes":[
		{
			"mesh":0,
			"name":"\u5186\u67f1",
			"rotation":[
				0.8049967288970947,
				0,
				0,
				0.5932794213294983
			],
			"scale":[
				0.2100396603345871,
				0.6781221032142639,
				0.21003969013690948
			],
			"translation":[
				0,
				-0.2208845466375351,
				0.7287299036979675
			]
		}
	],
	"materials":[
		{
			"doubleSided":true,
			"name":"\u30de\u30c6\u30ea\u30a2\u30eb",
			"pbrMetallicRoughness":{
				"baseColorTexture":{
					"index":0
				},
				"metallicFactor":0,
				"roughnessFactor":0.5
			}
		}
	],
	"meshes":[
		{
			"name":"\u5186\u67f1",
			"primitives":[
				{
					"attributes":{
						"POSITION":0,
						"NORMAL":1,
						"TEXCOORD_0":2
					},
					"indices":3,
					"material":0
				}
			]
		}
	],
	"textures":[
		{
			"sampler":0,
			"source":0
		}
	],
	"images":[
		{
			"mimeType":"image/png",
			"name":"Boss",
			"uri":"Boss.png"
		}
	],
	"accessors":[
		{
			"bufferView":0,
			"componentType":5126,
			"count":5640,
			"max":[
				4.761004447937012,
				1,
				4.7634124755859375
			],
			"min":[
				-4.761001110076904,
				-2.5912911891937256,
				-5.49277400970459
			],
			"type":"VEC3"
		},
		{
			"bufferView":1,
			"componentType":5126,
			"count":5640,
			"type":"VEC3"
		},
		{
			"bufferView":2,
			"componentType":5126,
			"count":5640,
			"type":"VEC2"
		},
		{
			"bufferView":3,
			"componentType":5123,
			"count":13284,
			"type":"SCALAR"
		}
	],
	"bufferViews":[
		{
			"buffer":0,
			"byteLength":67680,
			"byteOffset":0,
			"target":34962
		},
		{
			"buffer":0,
			"byteLength":67680,
			"byteOffset":67680,
			"target":34962
		},
		{
			"buffer":0,
			"byteLength":45120,
			"byteOffset":135360,
			"target":34962
		},
		{
			"buffer":0,
			"byteLength":26568,
			"byteOffset":180480,
			"target":34963
		}
	],
	"samplers":[
		{
			"magFilter":9729,
			"minFilter":9987
		}
	],
	"buffers":[
		{
			"byteLength":207048,
			"uri":"Boss.bin"
		}
	]
}
