{
	"asset":{
		"generator":"Khronos glTF Blender I/O v4.1.63",
		"version":"2.0"
	},
	"scene":0,
	"scenes":[
		{
			"name":"Scene",
			"nodes":[
				0
			]
		}
	],
	"nodes":[
		{
			"mesh":0,
			"name":"\u5186\u67f1"
		}
	],
	"materials":[
		{
			"alphaMode":"BLEND",
			"doubleSided":true,
			"name":"\u30de\u30c6\u30ea\u30a2\u30eb",
			"pbrMetallicRoughness":{
				"baseColorTexture":{
					"index":0
				},
				"metallicFactor":0,
				"roughnessFactor":0.5
			}
		}
	],
	"meshes":[
		{
			"name":"\u5186\u67f1",
			"primitives":[
				{
					"attributes":{
						"POSITION":0,
						"NORMAL":1,
						"TEXCOORD_0":2
					},
					"indices":3,
					"material":0
				}
			]
		}
	],
	"textures":[
		{
			"sampler":0,
			"source":0
		}
	],
	"images":[
		{
			"mimeType":"image/png",
			"name":"Boss",
			"uri":"Boss.png"
		}
	],
	"accessors":[
		{
			"bufferView":0,
			"componentType":5126,
			"count":5731,
			"max":[
				1.4401625394821167,
				1.1811633110046387,
				0.9999990463256836
			],
			"min":[
				-1,
				-1,
				-0.9999997615814209
			],
			"type":"VEC3"
		},
		{
			"bufferView":1,
			"componentType":5126,
			"count":5731,
			"type":"VEC3"
		},
		{
			"bufferView":2,
			"componentType":5126,
			"count":5731,
			"type":"VEC2"
		},
		{
			"bufferView":3,
			"componentType":5123,
			"count":13284,
			"type":"SCALAR"
		}
	],
	"bufferViews":[
		{
			"buffer":0,
			"byteLength":68772,
			"byteOffset":0,
			"target":34962
		},
		{
			"buffer":0,
			"byteLength":68772,
			"byteOffset":68772,
			"target":34962
		},
		{
			"buffer":0,
			"byteLength":45848,
			"byteOffset":137544,
			"target":34962
		},
		{
			"buffer":0,
			"byteLength":26568,
			"byteOffset":183392,
			"target":34963
		}
	],
	"samplers":[
		{
			"magFilter":9729,
			"minFilter":9987
		}
	],
	"buffers":[
		{
			"byteLength":209960,
			"uri":"Boss.bin"
		}
	]
}
