{
	"asset":{
		"generator":"Khronos glTF Blender I/O v4.1.63",
		"version":"2.0"
	},
	"scene":0,
	"scenes":[
		{
			"name":"Scene",
			"nodes":[
				0
			]
		}
	],
	"nodes":[
		{
			"mesh":0,
			"name":"\u5186\u9310"
		}
	],
	"materials":[
		{
			"doubleSided":true,
			"name":"\u30de\u30c6\u30ea\u30a2\u30eb",
			"pbrMetallicRoughness":{
				"baseColorTexture":{
					"index":0
				},
				"metallicFactor":0,
				"roughnessFactor":0.5
			}
		}
	],
	"meshes":[
		{
			"name":"\u5186\u9310",
			"primitives":[
				{
					"attributes":{
						"POSITION":0,
						"NORMAL":1,
						"TEXCOORD_0":2
					},
					"indices":3,
					"material":0
				}
			]
		}
	],
	"textures":[
		{
			"sampler":0,
			"source":0
		}
	],
	"images":[
		{
			"mimeType":"image/png",
			"name":"UFO",
			"uri":"UFO.png"
		}
	],
	"accessors":[
		{
			"bufferView":0,
			"componentType":5126,
			"count":8064,
			"max":[
				1.610100507736206,
				1.469031810760498,
				1.6100999116897583
			],
			"min":[
				-1.6100994348526,
				-0.9647411108016968,
				-1.6101009845733643
			],
			"type":"VEC3"
		},
		{
			"bufferView":1,
			"componentType":5126,
			"count":8064,
			"type":"VEC3"
		},
		{
			"bufferView":2,
			"componentType":5126,
			"count":8064,
			"type":"VEC2"
		},
		{
			"bufferView":3,
			"componentType":5123,
			"count":11706,
			"type":"SCALAR"
		}
	],
	"bufferViews":[
		{
			"buffer":0,
			"byteLength":96768,
			"byteOffset":0,
			"target":34962
		},
		{
			"buffer":0,
			"byteLength":96768,
			"byteOffset":96768,
			"target":34962
		},
		{
			"buffer":0,
			"byteLength":64512,
			"byteOffset":193536,
			"target":34962
		},
		{
			"buffer":0,
			"byteLength":23412,
			"byteOffset":258048,
			"target":34963
		}
	],
	"samplers":[
		{
			"magFilter":9729,
			"minFilter":9987
		}
	],
	"buffers":[
		{
			"byteLength":281460,
			"uri":"UFO.bin"
		}
	]
}
