{
	"asset":{
		"generator":"Khronos glTF Blender I/O v4.1.63",
		"version":"2.0"
	},
	"scene":0,
	"scenes":[
		{
			"name":"Scene",
			"nodes":[
				0
			]
		}
	],
	"nodes":[
		{
			"mesh":0,
			"name":"\u7403.001"
		}
	],
	"materials":[
		{
			"doubleSided":true,
			"name":"\u30de\u30c6\u30ea\u30a2\u30eb",
			"pbrMetallicRoughness":{
				"baseColorTexture":{
					"index":0
				},
				"metallicFactor":0,
				"roughnessFactor":0.5
			}
		}
	],
	"meshes":[
		{
			"name":"\u7403.001",
			"primitives":[
				{
					"attributes":{
						"POSITION":0,
						"NORMAL":1,
						"TEXCOORD_0":2
					},
					"indices":3,
					"material":0
				}
			]
		}
	],
	"textures":[
		{
			"sampler":0,
			"source":0
		}
	],
	"images":[
		{
			"mimeType":"image/png",
			"name":"Bump",
			"uri":"Bump.png"
		}
	],
	"accessors":[
		{
			"bufferView":0,
			"componentType":5126,
			"count":2056,
			"max":[
				1.1747231483459473,
				1.1081950664520264,
				0.9999995231628418
			],
			"min":[
				-0.9999992251396179,
				-1.0000001192092896,
				-1.0000001192092896
			],
			"type":"VEC3"
		},
		{
			"bufferView":1,
			"componentType":5126,
			"count":2056,
			"type":"VEC3"
		},
		{
			"bufferView":2,
			"componentType":5126,
			"count":2056,
			"type":"VEC2"
		},
		{
			"bufferView":3,
			"componentType":5123,
			"count":3012,
			"type":"SCALAR"
		}
	],
	"bufferViews":[
		{
			"buffer":0,
			"byteLength":24672,
			"byteOffset":0,
			"target":34962
		},
		{
			"buffer":0,
			"byteLength":24672,
			"byteOffset":24672,
			"target":34962
		},
		{
			"buffer":0,
			"byteLength":16448,
			"byteOffset":49344,
			"target":34962
		},
		{
			"buffer":0,
			"byteLength":6024,
			"byteOffset":65792,
			"target":34963
		}
	],
	"samplers":[
		{
			"magFilter":9729,
			"minFilter":9987
		}
	],
	"buffers":[
		{
			"byteLength":71816,
			"uri":"Bump.bin"
		}
	]
}
